<svg width="64" height="64" xmlns="http://www.w3.org/2000/svg">
    <rect x="0" y="0" width="64" height="64" fill="#454545" stroke-width="6" stroke="#2f2f2f"/>
    <rect x="0" y="23" width="2" height="20" fill="#736c5c"/>
    <rect x="62" y="23" width="2" height="20" fill="#736c5c"/>
    <line x1="59" x2="54" y1="28" y2="33" stroke-width="2" stroke="#c0f734"/>
    <line x1="59" x2="54" y1="37" y2="32" stroke-width="2" stroke="#c0f734"/>

    <line x1="10" x2="5" y1="28" y2="33" stroke-width="2" stroke="#c0f734"/>
    <line x1="10" x2="5" y1="37" y2="32" stroke-width="2" stroke="#c0f734"/>
    <g transform="scale(0.8) translate(8 8)">
        <rect x="16" y="16" width="32" height="1" fill="gray"/>
        <rect x="16" y="32" width="32" height="1" fill="gray"/>
        <rect x="16" y="48" width="32" height="1" fill="gray"/>
        <rect x="20" y="0" width="24" height="64" fill="white" stroke-width="2" stroke="#b0b0b0"/>
        <rect x="20" y="32" width="24" height="32" fill="gray" stroke-width="2" stroke="#b0b0b0"/>
        <rect x="19" y="24" width="26" height="0.5" fill="#212121"/>
        <rect x="16" y="6" width="2" height="54" fill="#b0b0b0" stroke="gray" stroke-width="0.5"/>
        <rect x="46" y="6" width="2" height="54" fill="#b0b0b0" stroke="gray" stroke-width="0.5"/>
    </g>
    <g transform="scale(0.8) translate(8 10)">
        <ellipse cx="32" cy="7" rx="5" ry="7"/>
        <ellipse cx="32" cy="20" rx="10" ry="10"/>
        <polygon points="27,10 30,12 34,12 37,10 37,12 34,14 30,14 27,12" fill="gray"/>
        <rect x="28" y="20" width="8" height="10" style="fill:white"/>
        <rect x="29" y="21" width="2" height="3" style="fill:gray"/>
        <line x1="32" y1="22" x2="35" y2="22" stroke="blue"/>
        <line x1="32" y1="24" x2="35" y2="24" stroke="gray"/>
        <line x1="29" y1="26" x2="35" y2="26" stroke="gray"/>
        <line x1="29" y1="28" x2="35" y2="28" stroke="gray"/>
    </g>
    <g transform="scale(0.8) translate(8 8)">
        <polygon points="21,24 21,63 32,54 32,24" fill="#c9c9c9"/>
        <polygon points="43,24 43,63 32,54 32,24" fill="#5c5959"/>
    </g>
</svg>