<svg width="128" height="128" xmlns="http://www.w3.org/2000/svg">
    <rect width="120" height="110" fill="#2f2f2f" x="4" y="18"/>
    <rect width="128" height="6" fill="#2f2f2f" x="0" y="18"/>
    <rect width="128" height="30" fill="#6e654b" x="0" y="78"/>
    <rect width="128" height="6" fill="#2f2f2f" x="0" y="78"/>
    <rect width="128" height="6" fill="#2f2f2f" x="0" y="108"/>
    <rect width="108" height="110" fill="#f2d9a2" x="10" y="24" />
    <polygon points="30,44 20,64 30,128 44,128 54,64 44,44" fill="#3d240a" stroke="#361f07"/>
    <rect x="36" y="64" width="2" height="14" fill="gray"/>
    <rect x="33" y="68" width="8" height="2" fill="gray"/>
    <polygon points="80,44 70,64 80,128 94,128 104,64 94,44" fill="#3d240a" stroke="#361f07"/>
    <rect x="86" y="64" width="2" height="14" fill="gray"/>
    <rect x="83" y="68" width="8" height="2" fill="gray"/>
    <polygon points="10,24 10,128 64,24 118,24 118,128 64,24" fill="black" opacity="0.3"/>
    <rect x="60" y="24" width="8" height="4" fill="#f7f6c1" stroke="#4d4c49"/>
</svg>
