<svg xmlns="http://www.w3.org/2000/svg" width="64" height="64">
    <svg width="64" height="64" xmlns="http://www.w3.org/2000/svg">
        <rect x="0" y="0" width="64" height="64" fill="#454545" stroke-width="6" stroke="#2f2f2f"/>
        <rect x="0" y="23" width="2" height="20" fill="#736c5c"/>
        <rect x="62" y="23" width="2" height="20" fill="#736c5c"/>
        <line x1="59" x2="54" y1="28" y2="33" stroke-width="2" stroke="#c0f734"/>
        <line x1="59" x2="54" y1="37" y2="32" stroke-width="2" stroke="#c0f734"/>

        <line x1="10" x2="5" y1="28" y2="33" stroke-width="2" stroke="#c0f734"/>
        <line x1="10" x2="5" y1="37" y2="32" stroke-width="2" stroke="#c0f734"/>
        <g transform="scale(0.075) translate(156 156)">
            <path d="M112,320c0-93,124-165,96-272,66,0,192,96,192,272a144,144,0,0,1-288,0Z" fill="#911800" stroke="#7a0a00" stroke-width="20"/>
            <path d="M320,368c0,57.71-32,80-64,80s-64-22.29-64-80,40-86,32-128C266,240,320,310.29,320,368Z" fill="#ffcf3d" stroke-width="20" stroke="#ed7a0e"/>
        </g>
    </svg>
</svg>