<svg width="384" height="192" xmlns="http://www.w3.org/2000/svg">
    <rect width="300" height="160" fill="#2f2f2f" x="10" y="32"/>
    <rect width="280" height="160" fill="#325252" x="20" y="32"/>
    <rect width="320" height="10" fill="#2f2f2f" x="0" y="32"/>
    <rect width="37" height="37" fill="#545657" stroke-width="4" stroke="#373838" x="30" y="54"/>
    <rect width="5" height="1" fill="#545657" stroke-width="4" stroke="#373838" x="37" y="74"/>
    <rect width="37" height="37" fill="#545657" stroke-width="4" stroke="#373838" x="77" y="54"/>
    <rect width="5" height="1" fill="#545657" stroke-width="4" stroke="#373838" x="84" y="74"/>
    <rect width="37" height="37" fill="#545657" stroke-width="4" stroke="#373838" x="124" y="54"/>
    <rect width="5" height="1" fill="#545657" stroke-width="4" stroke="#373838" x="131" y="74"/>
    <rect width="37" height="37" fill="#545657" stroke-width="4" stroke="#373838" x="30" y="101"/>
    <rect width="5" height="1" fill="#545657" stroke-width="4" stroke="#373838" x="37" y="121"/>
    <rect width="37" height="37" fill="#545657" stroke-width="4" stroke="#373838" x="77" y="101"/>
    <rect width="5" height="1" fill="#545657" stroke-width="4" stroke="#373838" x="84" y="121"/>
    <rect width="37" height="37" fill="#545657" stroke-width="4" stroke="#373838" x="124" y="101"/>
    <rect width="5" height="1" fill="#545657" stroke-width="4" stroke="#373838" x="131" y="121"/>
    <rect width="37" height="37" fill="#545657" stroke-width="4" stroke="#373838" x="30" y="148"/>
    <rect width="5" height="1" fill="#545657" stroke-width="4" stroke="#373838" x="37" y="168"/>
    <rect width="37" height="37" fill="#545657" stroke-width="4" stroke="#373838" x="77" y="148"/>
    <rect width="5" height="1" fill="#545657" stroke-width="4" stroke="#373838" x="84" y="168"/>
    <rect width="37" height="37" fill="#545657" stroke-width="4" stroke="#373838" x="124" y="148"/>
    <rect width="5" height="1" fill="#545657" stroke-width="4" stroke="#373838" x="131" y="168"/>
    <rect width="100" height="10" fill="#363d3d" x="180" y="140"/>
    <rect width="80" height="50" fill="#1e2121" x="190" y="150"/>
    <rect width="5" height="30" fill="#1e2121" x="230" y="42"/>
    <circle cx="232" cy="75" r="5" fill="yellow"/>
    <polygon points="160,192 232,75 304,192" style="fill:yellow;fill-opacity:0.1"/>
    <rect width="20" height="50" fill="#1e2121" x="310" y="100"/>
    <rect width="50" height="50" fill="#1e2121" x="327" y="150"/>
    <polygon points="327,100 377,150 327,150" style="fill:#1e2121;stroke:#131414;stroke-width:4"/>
</svg>