<svg width="64" height="64" xmlns="http://www.w3.org/2000/svg">
    <g>
        <path transform="rotate(0.414108, 25.077, 17.3623)" fill="url(#svg_43)" d="m19.44719,21.28449c0.12178,-3.05197 8.20006,-8.87105 8.15947,-8.87105c-0.04059,0 3.12577,-0.24416 3.10145,-0.26853c0.02431,0.02437 -3.58859,5.27376 -3.6129,5.24939c0.02431,0.02437 -0.21925,3.64604 -0.24356,3.62167c0.02431,0.02437 -7.52624,3.3205 -7.40445,0.26853z"/>
        <ellipse fill="url(#svg_16)" cx="177.49985" cy="188.49984" rx="87.49997" ry="87.99997"/>
        <ellipse fill="url(#svg_16)" cx="26.64285" cy="29.24441" rx="11.03659" ry="10.87702"/>
        <ellipse fill="url(#svg_16)" cx="36.68645" cy="29.01164" rx="10.79119" ry="10.69297"/>
        <path fill="#820606" d="m16.95138,33.03448c0.81236,4.61079 6.62561,11.00672 10.87086,16.96499c1.67296,1.89758 2.86542,0.39328 4.13566,-0.54245c6.74106,-6.4885 12.95509,-11.87651 12.85007,-14.64604c4.56399,-7.40438 -28.66894,-6.3873 -27.85658,-1.77651l-0.00001,0.00001z"/>
        <path fill="url(#svg_43)" d="m30.63023,20.02827l-6.84671,4.7146l-3.80868,7.01021l-1.24004,5.77764l0.39858,0.69332l1.86005,-6.39393l3.94154,-6.27838l6.37732,-5.85468l-0.68207,0.33121l0.00001,0z"/>
    </g>
    <defs>
        <linearGradient id="svg_16" x1="1" y1="1" x2="1" y2="0" spreadMethod="pad">
            <stop stop-color="#820606" offset="0.62891"/>
            <stop stop-color="#ffe5ad" stop-opacity="0.99609" offset="1"/>
        </linearGradient>
        <linearGradient id="svg_43" x1="0" y1="0" x2="0" y2="1">
            <stop stop-color="#fc9b83" stop-opacity="0.99219" offset="0.03906"/>
            <stop stop-color="#ffe5ad" offset="0.28516" stop-opacity="0.99609"/>
            <stop stop-color="#fee5ad" stop-opacity="0.99219" offset="1"/>
        </linearGradient>
    </defs>
</svg>