<svg width="64" height="64" xmlns="http://www.w3.org/2000/svg">
    <g>
        <path d="m19.69807,24.92717c-2.37197,4.25876 -2.04852,7.87061 -0.37736,11.96764c1.67116,4.09703 7.1159,5.92991 8.08625,0.91644c0.97035,-5.01347 -1.99461,-3.50404 -0.21563,-9.86522c1.77897,-6.36118 -5.12129,-7.27762 -7.49325,-3.01887z"
              fill="#4d0818"/>
        <path transform="rotate(-180, 39.943, 31.6352)"
              d="m36.84091,24.98108c-2.37197,4.25876 -2.04852,7.87061 -0.37736,11.96764c1.67116,4.09703 7.1159,5.92991 8.08625,0.91644c0.97035,-5.01347 -1.99461,-3.50404 -0.21563,-9.86522c1.77897,-6.36118 -5.12129,-7.27762 -7.49325,-3.01887z"
              fill="#4d0818"/>
        <path d="m26.00534,30.47973c0.26954,-0.80862 3.24534,1.89763 3.26687,2.45825c0.02153,0.56062 1.16445,11.13748 0.32345,10.72775c-0.841,-0.40973 -0.61453,-8.75468 -1.34771,-10.35039c-0.73318,-1.59571 -2.51216,-2.02698 -2.24261,-2.8356z" fill="#efcf2d"/>
        <path d="m36.73309,31.01881c0.32345,1.02426 -2.52285,2.3828 -2.77086,3.15905c-0.24801,0.77625 -0.18326,9.62805 -1.02426,9.21832c-0.841,-0.40973 0.14019,-7.99996 0.26954,-9.1105c0.12935,-1.11054 3.20212,-4.29113 3.52557,-3.26687z" fill="#efcf2d"/>
    </g>
</svg>