<svg width="64" height="64" xmlns="http://www.w3.org/2000/svg">
    <g>
        <path d="m15.03339,17.23068c0.20761,-4.12087 13.97921,-11.978 13.91,-11.978c-0.0692,0 5.32871,-0.32967 5.28726,-0.36258c0.04145,0.03291 -6.11771,7.12081 -6.15916,7.0879c0.04145,0.03291 -0.37377,4.92301 -0.41522,4.8901c0.04145,0.03291 -12.8305,4.48345 -12.62288,0.36258z" fill="url(#svg_43)"/>
        <ellipse ry="12.90155" rx="13.36787" id="svg_18" cy="25.21244" cx="22.15544" fill="url(#svg_16)"/>
        <ellipse ry="12.90155" rx="13.36787" id="svg_21" cy="25.31607" cx="37.18135" fill="url(#svg_16)"/>
        <ellipse ry="4.04145" rx="4.35233" id="svg_22" cy="50.75648" cx="27.33679"  fill="#820606"/>
        <path d="m9.3057,28.06218c1.1399,7.04663 15.33679,26.01036 15.25388,25.92745c0.08291,0.08291 4.02073,0.60105 5.80311,-0.82902c2.05182,0.08291 24.02073,-26.44558 18.03109,-22.38342c6.40415,-11.31605 -40.22797,-9.76165 -39.08807,-2.71502z" fill="#820606"/>
        <path d="m29.64824,14.59332l-8.49443,6.72532l-4.72527,9.99998l-1.53846,8.24174l0.4945,0.98901l2.30769,-9.12086l4.8901,-8.95603l7.91207,-8.35163l-0.84621,0.47247z" fill="url(#svg_43)"/>
    </g>
    <defs>
        <linearGradient spreadMethod="pad" y2="0" x2="1" y1="1" x1="1" id="svg_16">
            <stop offset="0.62891" stop-color="#820606"/>
            <stop offset="1" stop-opacity="0.99609" stop-color="#ffe5ad"/>
        </linearGradient>
        <linearGradient y2="1" x2="0" y1="0" x1="0" id="svg_43">
            <stop offset="0.03906" stop-opacity="0.99219" stop-color="#fc9b83"/>
            <stop stop-opacity="0.99609" offset="0.28516" stop-color="#ffe5ad"/>
            <stop offset="1" stop-opacity="0.99219" stop-color="#fee5ad"/>
        </linearGradient>
    </defs>
</svg>