<svg width="64" height="64" xmlns="http://www.w3.org/2000/svg">
    <rect x="20" y="42" width="24" height="10" fill="#997b6d"/>
    <ellipse cx="32" cy="24" rx="20" ry="24" fill="#c7ac9f"/>
    <ellipse cx="32" cy="64" rx="34" ry="16" fill="#997b6d"/>
    <circle cx="24" cy="24" r="6" fill="#b89a8c"/>
    <circle cx="40" cy="24" r="6" fill="#b89a8c"/>
    <line x1="20" x2="28" y1="24" y2="24" stroke="black"/>
    <line x1="36" x2="44" y1="24" y2="24" stroke="black"/>
    <polygon points="20,24 24,22 28,24 24,26" fill="white" stroke="#c7ac9f"/>
    <circle cx="24" cy="24" r="1.5" fill="black"/>
    <polygon points="36,24 40,22 44,24 40,26" fill="white" stroke="#c7ac9f"/>
    <circle cx="40" cy="24" r="1.5" fill="black"/>
    <polygon points="32,24 26,32 34,32" fill="#c29480"/>
    <line x1="28" x2="40" y1="38" y2="38" stroke="#bd776d" stroke-width="4"/>
    <line x1="28" x2="40" y1="38" y2="38" stroke="black" stroke-width="1"/>
</svg>