<svg width="64" height="64" xmlns="http://www.w3.org/2000/svg">
    <rect x="0" y="0" width="64" height="64" fill="#454545" stroke-width="6" stroke="#2f2f2f"/>
    <rect x="0" y="23" width="2" height="20" fill="#736c5c"/>
    <rect x="62" y="23" width="2" height="20" fill="#736c5c"/>
    <rect x="24" y="62" width="16" height="2" fill="#736c5c"/>
    <line x1="59" x2="54" y1="28" y2="33" stroke-width="2" stroke="#c0f734"/>
    <line x1="59" x2="54" y1="37" y2="32" stroke-width="2" stroke="#c0f734"/>

    <line x1="10" x2="5" y1="28" y2="33" stroke-width="2" stroke="#c0f734"/>
    <line x1="10" x2="5" y1="37" y2="32" stroke-width="2" stroke="#c0f734"/>
    <circle cx="20" cy="40" r="4" stroke-width="2" stroke="gray" fill="none"/>
    <circle cx="32" cy="40" r="4" stroke-width="2" stroke="gray" fill="none"/>
    <line x1="20" x2="30" y1="16" y2="38" stroke="gray" stroke-width="2"/>
    <line x1="32" x2="22" y1="16" y2="38" stroke="gray" stroke-width="2"/>
    <line x1="44" x2="44" y1="16" y2="34" stroke="gray" stroke-width="4"/>
    <polygon points="42,34 42,44 46,40 46,34" fill="white"/>
    <line x1="33" x2="28" y1="59" y2="54" stroke-width="2" stroke="#cc2f2f"/>
    <line x1="32" x2="37" y1="59" y2="54" stroke-width="2" stroke="#cc2f2f"/>
</svg>